<svg width="72" height="73" viewBox="0 0 72 73" fill="none" xmlns="http://www.w3.org/2000/svg">
<g id="data-update-icon 1" opacity="0.9" clip-path="url(#clip0_1_803)">
<path id="Vector" d="M9.97657 14.9616C14.5529 16.4984 20.9134 17.411 27.9794 17.411C35.0454 17.411 41.4119 16.4984 45.9823 14.9616C49.9955 13.6309 52.5029 12.0175 52.5029 10.4395C52.5029 8.86153 50.0192 7.25408 45.9823 5.92337C41.4119 4.41013 35.0514 3.47392 27.9794 3.47392C20.9075 3.47392 14.5529 4.41013 9.97657 5.89982C1.46418 8.7261 1.23299 12.0352 9.97657 14.938V14.9616ZM51.5308 33.3148C54.1116 33.313 56.6674 33.817 59.0518 34.7981C61.4361 35.7792 63.6021 37.218 65.4256 39.0321C67.2506 40.8432 68.6984 42.9938 69.6861 45.361C70.6739 47.7282 71.1823 50.2655 71.1823 52.828C71.1823 55.3904 70.6739 57.9277 69.6861 60.2949C68.6984 62.6621 67.2506 64.8127 65.4256 66.6238C63.6023 68.4365 61.4372 69.8746 59.054 70.8557C56.6709 71.8368 54.1164 72.3419 51.5367 72.3419C48.957 72.3419 46.4025 71.8368 44.0193 70.8557C41.6362 69.8746 39.4711 68.4365 37.6478 66.6238C35.8228 64.8127 34.375 62.6621 33.3873 60.2949C32.3995 57.9277 31.8911 55.3904 31.8911 52.828C31.8911 50.2655 32.3995 47.7282 33.3873 45.361C34.375 42.9938 35.8228 40.8432 37.6478 39.0321C39.47 37.218 41.6349 35.779 44.0183 34.7979C46.4017 33.8168 48.9567 33.3128 51.5367 33.3148H51.5308ZM52.6452 43.6307L50.9795 51.8976L49.3197 49.4129C45.763 50.8378 43.7356 53.193 43.4393 56.8083C40.4753 51.7092 42.2833 47.1342 46.006 44.4433L44.3107 41.9114L52.6096 43.619L52.6452 43.6307ZM49.9836 62.5492L51.6197 54.3059L53.2854 56.7906C56.8421 55.3657 58.8694 53.0105 59.1658 49.3952C62.1298 54.4943 60.3514 59.0693 56.5991 61.7602L58.2944 64.2921L49.9955 62.5845L49.9836 62.5492ZM63.2501 41.2284C60.5357 38.5292 56.9629 36.8486 53.1407 36.4731C49.3184 36.0976 45.4834 37.0505 42.2893 39.1692C39.0951 41.288 36.7396 44.4415 35.6243 48.0922C34.509 51.743 34.7028 55.6649 36.1728 59.1896C37.6428 62.7142 40.298 65.6234 43.6857 67.4212C47.0734 69.219 50.9839 69.7941 54.7507 69.0485C58.5176 68.303 61.9075 66.2828 64.3427 63.3325C66.7778 60.3822 68.1075 56.6843 68.105 52.8692C68.1088 50.7067 67.6818 48.5648 66.8486 46.5669C66.0153 44.5691 64.7924 42.7547 63.2501 41.2284ZM26.0351 53.5934C19.3781 53.458 13.3673 52.4864 8.89177 51.0026C7.00792 50.4087 5.21337 49.565 3.55671 48.4943V59.7877C3.87088 61.2538 6.27759 62.7317 10.0121 63.9741C14.5884 65.4933 20.949 66.4295 28.015 66.4295C28.6967 66.4295 29.3725 66.4295 30.0423 66.4295C30.8024 67.6138 31.6589 68.7343 32.6032 69.7798C31.1093 69.8661 29.58 69.9093 28.015 69.9093C20.5933 69.9093 13.8356 68.9025 8.90955 67.2715C6.31316 66.4059 0.0711342 63.5796 0.0711342 60.2057V59.0693C0.0355671 43.6366 0 25.8722 0 10.4395C0 7.21286 3.39073 4.4749 8.89177 2.65547C13.8 1.01858 20.5578 0.0117188 27.9794 0.0117188C35.4011 0.0117188 42.1588 1.01858 47.0849 2.65547C52.0109 4.29237 55.3364 6.73004 55.8818 9.58577C55.9496 9.77472 55.9837 9.97398 55.9826 10.1746V27.8919C54.792 27.6798 53.5874 27.5539 52.3785 27.515C52.4434 27.3396 52.4775 27.1543 52.4792 26.9674V15.6858C50.8007 16.7755 48.9797 17.6313 47.0671 18.2295C42.1411 19.8605 35.3833 20.8732 27.9617 20.8732C20.54 20.8732 13.8 19.8605 8.89177 18.2295C7.00922 17.6349 5.21502 16.7933 3.55671 15.7271V27.2972C3.87088 28.7633 6.27759 30.2412 10.0121 31.4836C14.5529 32.9851 20.9134 33.9389 27.9794 33.9389C30.398 33.9389 32.7217 33.8271 34.9387 33.621C34.5712 33.9331 34.2155 34.2569 33.8717 34.5866C33.7413 34.6926 33.6227 34.8045 33.5042 34.9164C32.7552 35.6582 32.0524 36.4448 31.3998 37.2716C30.2794 37.3187 29.1472 37.3423 27.9913 37.3423C20.5578 37.3953 13.8 36.3884 8.89177 34.7515C7.00822 34.1594 5.21369 33.3177 3.55671 32.2491V43.5424C3.87088 45.0086 6.27759 46.4865 10.0121 47.7289C14.1913 49.1126 19.8583 50.0134 26.2011 50.1606C26.1059 51.0505 26.0584 51.9448 26.0588 52.8397C26.0588 53.0988 26.0588 53.3579 26.0588 53.617L26.0351 53.5934Z" fill="white"/>
</g>
<defs>
<clipPath id="clip0_1_803">
<rect width="71.1875" height="72.3529" fill="white" transform="translate(0 0.0117188)"/>
</clipPath>
</defs>
</svg>
