<svg width="83" height="83" viewBox="0 0 83 83" fill="none" xmlns="http://www.w3.org/2000/svg">
<g clip-path="url(#clip0_1_32)">
<path d="M41.0031 82.0719C63.6486 82.0719 82.0063 63.6995 82.0063 41.0359C82.0063 18.3724 63.6486 0 41.0031 0C18.3577 0 0 18.3724 0 41.0359C0 63.6995 18.3577 82.0719 41.0031 82.0719Z" fill="url(#paint0_linear_1_32)" fill-opacity="0.7"/>
<g clip-path="url(#clip1_1_32)">
<mask id="mask0_1_32" style="mask-type:luminance" maskUnits="userSpaceOnUse" x="20" y="22" width="43" height="38">
<path d="M63 22H20V60H63V22Z" fill="white"/>
</mask>
<g mask="url(#mask0_1_32)">
<path fill-rule="evenodd" clip-rule="evenodd" d="M22.894 22H60.1025C61.6982 22 62.9965 23.3106 62.9965 24.9058V53.9319C62.9965 55.5307 61.6913 56.8377 60.1025 56.8377H57.0336C57.4745 55.9628 57.842 55.0458 58.1324 54.0971H59.7806C60.0046 54.0971 60.197 54.0092 60.3475 53.8617C60.498 53.7106 60.582 53.5138 60.582 53.2925V29.2381H60.596H22.53V53.296C22.53 53.5208 22.6175 53.7141 22.7645 53.8652C22.915 54.0163 23.1109 54.1006 23.3314 54.1006H24.8676C25.158 55.0528 25.5255 55.9663 25.9664 56.8412H22.894C21.3053 56.8412 20 55.5307 20 53.9355V24.9058C19.9965 23.3106 21.3018 22 22.894 22ZM40.7057 48.0923L46.868 44.15C46.924 44.1078 46.994 44.0938 47.057 44.0973C47.1235 44.1043 47.1899 44.1359 47.2389 44.1851L47.8338 44.8246C47.8828 44.8773 47.9073 44.9441 47.9108 45.0143C47.9143 45.0811 47.8898 45.1514 47.8443 45.2076C46.2591 46.9995 44.7544 48.9074 43.1552 50.6783C42.8228 51.0367 42.4728 51.2616 42.1334 51.381C41.7415 51.5181 41.36 51.5075 41.0206 51.3986C40.8631 51.3459 40.7162 51.2756 40.5832 51.1843C40.4467 51.0929 40.3242 50.9805 40.2157 50.8575L40.2122 50.854C40.1073 50.731 40.0198 50.5975 39.9498 50.4499C39.8798 50.3059 39.8273 50.1478 39.7993 49.9896V49.9826C39.7398 49.6453 39.7748 49.2834 39.9393 48.9426C40.0828 48.6369 40.3242 48.3488 40.6847 48.1063L40.7057 48.0923ZM32.2757 59.9192C31.9433 59.6065 31.6283 59.2762 31.3274 58.9283C31.0265 58.5805 30.743 58.2151 30.4806 57.8391C30.2181 57.4632 29.9732 57.0767 29.7527 56.6761C29.5322 56.2791 29.3293 55.8644 29.1438 55.4393C28.9653 55.0247 28.8044 54.596 28.6679 54.1568C28.5314 53.7211 28.4159 53.2784 28.3215 52.8252V52.8181C28.2305 52.3719 28.1605 51.9221 28.115 51.4619C28.0695 51.0086 28.045 50.5483 28.045 50.0915C28.045 49.192 28.1325 48.3101 28.3005 47.4563C28.4719 46.5814 28.7309 45.7346 29.0633 44.9265C29.4028 44.1043 29.8227 43.3208 30.3091 42.5899C30.799 41.8521 31.3624 41.1669 31.9853 40.5415C32.6082 39.916 33.2905 39.3503 34.0289 38.8549C34.7568 38.3665 35.5336 37.9484 36.3525 37.6076C37.1573 37.2738 38.0007 37.0138 38.872 36.8416C39.7223 36.673 40.6007 36.5851 41.4965 36.5851C42.3923 36.5851 43.2672 36.673 44.114 36.8416C44.9854 37.0138 45.8252 37.2738 46.6266 37.6076C47.4454 37.9484 48.2223 38.3665 48.9466 38.8584C49.685 39.3539 50.3709 39.9231 50.9937 40.5485C51.6166 41.1739 52.18 41.8626 52.6769 42.604C53.1668 43.3348 53.5833 44.1184 53.9262 44.9405C54.2621 45.7487 54.5211 46.5955 54.6926 47.4669C54.8605 48.3172 54.9515 49.1956 54.9515 50.0951C54.9515 50.5343 54.9305 50.9699 54.8885 51.4056C54.8465 51.8484 54.78 52.2805 54.6996 52.7022C54.6156 53.1273 54.5106 53.5525 54.3846 53.9706C54.2586 54.3922 54.1082 54.8068 53.9437 55.2109C53.7757 55.6185 53.5868 56.0155 53.3803 56.4055C53.1738 56.792 52.9499 57.168 52.7084 57.5299C52.467 57.8953 52.2045 58.2467 51.9281 58.5875C51.6516 58.9283 51.3542 59.2586 51.0427 59.5748C50.9867 59.6311 50.9133 59.6592 50.8398 59.6592C50.7663 59.6592 50.6928 59.6311 50.6368 59.5748L49.9964 58.9319C49.9754 58.9178 49.9579 58.9037 49.9404 58.8862L48.0893 57.031C48.0333 56.9748 48.0053 56.901 48.0053 56.8272C48.0053 56.7534 48.0333 56.6796 48.0893 56.6234L49.0586 55.6501C49.1146 55.5939 49.1881 55.5658 49.2616 55.5658C49.3351 55.5658 49.4085 55.5939 49.4645 55.6501L50.7453 56.9361C50.8503 56.7956 50.9517 56.648 51.0532 56.4969C51.1897 56.2931 51.3192 56.0858 51.4417 55.882C51.5711 55.6607 51.6971 55.4288 51.8126 55.1933C51.9316 54.9544 52.04 54.712 52.1415 54.466L52.145 54.459C52.2815 54.1252 52.404 53.7844 52.509 53.44C52.6139 53.0992 52.7014 52.7479 52.7714 52.3965C52.8379 52.0662 52.8939 51.7254 52.9289 51.381C52.9604 51.0964 52.9814 50.8083 52.9919 50.5237H51.2072C51.1302 50.5237 51.0567 50.4921 51.0042 50.4394C50.9517 50.3867 50.9203 50.3164 50.9203 50.2356V48.8583C50.9203 48.7774 50.9517 48.7072 51.0042 48.6545C51.0567 48.6018 51.1267 48.5701 51.2072 48.5701H52.8974C52.8239 48.022 52.7119 47.4879 52.5649 46.9644C52.3935 46.3636 52.1765 45.7838 51.9211 45.2322C51.6586 44.67 51.3507 44.1289 51.0007 43.6194C50.6858 43.1556 50.3359 42.7129 49.9579 42.2983L48.8241 43.4367C48.7717 43.4718 48.6947 43.5035 48.6247 43.5035C48.5512 43.5035 48.4777 43.4754 48.4217 43.4191L47.4349 42.4283C47.3894 42.3756 47.3649 42.3088 47.3649 42.2421C47.3649 42.1683 47.3929 42.0945 47.4489 42.0383L48.5267 40.9561C48.0998 40.6223 47.6449 40.3166 47.1725 40.046C46.6476 39.7439 46.0947 39.4839 45.5243 39.266L45.5173 39.2625C44.9539 39.0517 44.373 38.883 43.7746 38.7601C43.2462 38.6546 42.7038 38.5809 42.1509 38.5528V40.1058C42.1509 40.1831 42.1194 40.2569 42.0669 40.3096C42.0144 40.3623 41.9444 40.3939 41.8639 40.3939H40.4887C40.4117 40.3939 40.3382 40.3623 40.2857 40.3096C40.2332 40.2569 40.2017 40.1866 40.2017 40.1058V38.6055C39.6593 38.6652 39.1239 38.7671 38.606 38.9006C38.0112 39.0552 37.4338 39.259 36.8809 39.5014C36.321 39.7474 35.7821 40.039 35.2712 40.3693C34.8093 40.668 34.3683 41.0018 33.9554 41.3601L35.0892 42.4986C35.1452 42.5548 35.1732 42.6286 35.1732 42.7024C35.1732 42.7761 35.1452 42.8499 35.0892 42.9061L34.1024 43.897C34.0499 43.9427 33.9834 43.9673 33.9169 43.9673C33.8434 43.9673 33.7699 43.9392 33.714 43.8829L32.6012 42.7656C32.2512 43.1943 31.9293 43.651 31.6423 44.1289C31.3239 44.6559 31.0475 45.2111 30.82 45.7908L30.8165 45.7979C30.5925 46.3671 30.4106 46.9609 30.2741 47.5687C30.1551 48.1028 30.0746 48.6545 30.0326 49.2131H31.7928C31.8698 49.2131 31.9433 49.2448 31.9958 49.2975C32.0483 49.3502 32.0798 49.4204 32.0798 49.5012V50.8821C32.0798 50.9594 32.0483 51.0332 31.9958 51.0859C31.9433 51.1386 31.8733 51.1702 31.7928 51.1702H30.0431C30.0676 51.4197 30.0956 51.6656 30.1341 51.9046C30.1831 52.2103 30.2426 52.5089 30.3126 52.8076V52.8146C30.3861 53.1273 30.4771 53.44 30.5785 53.7457C30.6835 54.062 30.799 54.3676 30.9285 54.6663C31.037 54.9193 31.1559 55.1723 31.2889 55.4252L31.2959 55.4393C31.4254 55.6852 31.5619 55.9242 31.7053 56.1596C31.8383 56.3774 31.9853 56.5988 32.1427 56.8166L32.1497 56.8272C32.2617 56.9818 32.3737 57.1329 32.4927 57.2804L33.9169 55.8504C33.9729 55.7942 34.0464 55.7661 34.1199 55.7661C34.1934 55.7661 34.2669 55.7942 34.3228 55.8504L35.3097 56.8412C35.3552 56.8939 35.3796 56.9607 35.3796 57.0275C35.3796 57.1012 35.3517 57.175 35.2957 57.2313L35.2852 57.2418C34.8407 57.688 34.4068 58.1237 33.9764 58.5629C33.546 59.0021 33.1191 59.4484 32.6851 59.9086L32.6816 59.9122C32.6292 59.9684 32.5592 59.9965 32.4857 60C32.4157 60.0035 32.3422 59.9789 32.2862 59.9262L32.2757 59.9192ZM57.3451 24.3541C58.1359 24.3541 58.7763 24.9971 58.7763 25.7912C58.7763 26.5853 58.1359 27.2283 57.3451 27.2283C56.5542 27.2283 55.9138 26.5853 55.9138 25.7912C55.9138 24.9971 56.5542 24.3541 57.3451 24.3541ZM47.6484 24.3541C48.4392 24.3541 49.0796 24.9971 49.0796 25.7912C49.0796 26.5853 48.4392 27.2283 47.6484 27.2283C46.8575 27.2283 46.2171 26.5853 46.2171 25.7912C46.2136 24.9971 46.854 24.3541 47.6484 24.3541ZM52.495 24.3541C53.2858 24.3541 53.9262 24.9971 53.9262 25.7912C53.9262 26.5853 53.2858 27.2283 52.495 27.2283C51.7041 27.2283 51.0637 26.5853 51.0637 25.7912C51.0637 24.9971 51.7041 24.3541 52.495 24.3541Z" fill="white"/>
</g>
</g>
</g>
<defs>
<linearGradient id="paint0_linear_1_32" x1="26.2174" y1="-2.82225" x2="58.9487" y2="94.4714" gradientUnits="userSpaceOnUse">
<stop stop-color="#6EE8FC"/>
<stop offset="0.16" stop-color="#6AE2FB"/>
<stop offset="0.37" stop-color="#5ED1F7"/>
<stop offset="0.61" stop-color="#4BB5F1"/>
<stop offset="0.87" stop-color="#308EE8"/>
<stop offset="0.96" stop-color="#267FE5"/>
</linearGradient>
<clipPath id="clip0_1_32">
<rect width="83" height="83" fill="white"/>
</clipPath>
<clipPath id="clip1_1_32">
<rect width="43" height="38" fill="white" transform="translate(20 22)"/>
</clipPath>
</defs>
</svg>
