<svg width="83" height="83" viewBox="0 0 83 83" fill="none" xmlns="http://www.w3.org/2000/svg">
<g clip-path="url(#clip0_1_33)">
<path d="M41.0031 82.0719C63.6486 82.0719 82.0063 63.6995 82.0063 41.0359C82.0063 18.3724 63.6486 0 41.0031 0C18.3577 0 0 18.3724 0 41.0359C0 63.6995 18.3577 82.0719 41.0031 82.0719Z" fill="url(#paint0_linear_1_33)" fill-opacity="0.7"/>
<g clip-path="url(#clip1_1_33)">
<mask id="mask0_1_33" style="mask-type:luminance" maskUnits="userSpaceOnUse" x="20" y="19" width="43" height="45">
<path d="M63 19H20V64H63V19Z" fill="white"/>
</mask>
<g mask="url(#mask0_1_33)">
<path d="M49.667 28.9536C49.4211 29.0781 49.1787 29.21 48.9363 29.3564C48.2057 29.7959 47.4893 30.3306 46.7552 30.9458L45.1906 29.1038C45.7287 28.5874 46.3168 28.1187 46.9405 27.7048C47.4359 27.3716 47.9562 27.0786 48.4873 26.8223C48.7011 26.7124 48.915 26.6099 49.1324 26.5146C48.0988 24.636 46.6126 23.2883 44.9304 22.457C43.2517 21.6294 41.3663 21.3108 39.5344 21.4902C37.7132 21.6697 35.9419 22.3508 34.4806 23.519C32.7913 24.8667 31.5011 26.8808 31.0093 29.5505L30.856 30.3855L30.047 30.532C29.2558 30.6748 28.5465 30.8689 27.9264 31.1179C27.3241 31.3596 26.7895 31.6526 26.319 32.0005C25.9448 32.2788 25.6205 32.5937 25.346 32.9307C24.4942 33.978 24.0986 35.2927 24.1093 36.6221C24.12 37.9734 24.5477 39.3357 25.3354 40.4563C25.6276 40.8738 25.9698 41.2546 26.3582 41.5879C26.7503 41.9248 27.1958 42.2031 27.6947 42.4119C28.1901 42.6206 28.7354 42.7708 29.3449 42.8586H52.8211C53.9652 42.5767 54.9738 42.1921 55.8292 41.7014C56.681 41.2107 57.376 40.6174 57.8963 39.9033C58.7053 38.7974 59.1045 37.23 59.1188 35.626C59.1366 33.9414 58.7374 32.2495 57.9569 31.0154C57.7324 30.6602 57.49 30.3415 57.2298 30.0522C56.0608 28.7595 54.5782 28.1956 53.0385 28.1846C51.9159 28.1772 50.7647 28.4556 49.667 28.9536ZM60.384 49.8569C61.1075 49.8569 61.7597 50.1572 62.2337 50.6443C62.7077 51.1313 63 51.8052 63 52.5449C63 53.2883 62.7077 53.9585 62.2337 54.4456C61.7597 54.9326 61.1039 55.2329 60.384 55.2329C59.6605 55.2329 59.0083 54.9326 58.5343 54.4456C58.2884 54.1929 58.0888 53.8889 57.9569 53.5483H51.4454C50.9322 53.5483 50.5152 53.1199 50.5152 52.5925V45.3049H45.6004V58.7925C45.9497 58.928 46.2633 59.1404 46.5199 59.4041C46.9939 59.8911 47.2862 60.5649 47.2862 61.3047C47.2862 62.0481 46.9939 62.7183 46.5199 63.2053C46.0459 63.6924 45.3901 63.9927 44.6702 63.9927C43.9467 63.9927 43.2945 63.6924 42.8205 63.2053C42.3465 62.7183 42.0542 62.0444 42.0542 61.3047C42.0542 60.5613 42.3465 59.8911 42.8205 59.4041C43.0806 59.1367 43.3907 58.928 43.74 58.7925V45.3086H38.1837V61.1545C38.1837 61.6819 37.7667 62.1104 37.2535 62.1104H26.9035C26.7752 62.5315 26.5507 62.9087 26.2549 63.2126C25.7808 63.6997 25.1251 64 24.4051 64C23.6816 64 23.0294 63.6997 22.5554 63.2126C22.0814 62.7256 21.7891 62.0518 21.7891 61.312C21.7891 60.5686 22.0814 59.8984 22.5554 59.4114C23.0294 58.9243 23.6852 58.624 24.4051 58.624C25.1286 58.624 25.7808 58.9243 26.2549 59.4114C26.4758 59.6384 26.6576 59.9058 26.7895 60.2024H36.3232V45.3086H31.6401V50.2305C31.6401 50.7578 31.2231 51.1863 30.7099 51.1863H25.0574C24.9255 51.5342 24.7223 51.8455 24.4693 52.1055C23.9953 52.5925 23.3395 52.8928 22.6196 52.8928C21.8996 52.8928 21.2438 52.5925 20.7698 52.1055C20.2922 51.6221 20 50.9482 20 50.2048C20 49.4614 20.2922 48.7913 20.7663 48.3042C21.2403 47.8171 21.8961 47.5168 22.616 47.5168C23.3359 47.5168 23.9917 47.8171 24.4657 48.3042C24.7295 48.5752 24.9397 48.9084 25.0716 49.2747H29.7761V45.3086H29.2879L29.1382 45.2939C28.2757 45.1804 27.488 44.9717 26.7788 44.6714C26.0446 44.3601 25.3924 43.9573 24.8186 43.4629C24.2768 42.9978 23.7993 42.4668 23.393 41.8918C22.3131 40.3611 21.7321 38.4897 21.7179 36.6294C21.7143 34.7507 22.2845 32.8794 23.5141 31.3633C23.9133 30.8726 24.3802 30.4221 24.9184 30.0229C25.5421 29.5579 26.2584 29.1623 27.0639 28.8401C27.6199 28.6167 28.2151 28.4299 28.8459 28.2834C29.5587 25.3794 31.077 23.1418 33.0265 21.5854C34.8513 20.1316 37.0503 19.2856 39.3099 19.0623C41.5588 18.8389 43.879 19.2307 45.9568 20.2561C48.2307 21.3767 50.2087 23.2407 51.4953 25.8664C52.0121 25.7822 52.5289 25.7419 53.0457 25.7456C55.2197 25.7603 57.3154 26.5586 58.9691 28.3896C59.3148 28.7742 59.6427 29.2026 59.9492 29.686C60.9863 31.323 61.5138 33.5056 61.4924 35.6443C61.471 37.7427 60.9186 39.8301 59.7924 41.3682C59.0582 42.3716 58.1173 43.1882 56.9875 43.8364C55.9005 44.4626 54.6317 44.9387 53.2096 45.2756L52.9459 45.3086H52.3828V51.6404H57.9248C58.0567 51.2632 58.267 50.9226 58.5378 50.6443C59.0047 50.1572 59.6605 49.8569 60.384 49.8569Z" fill="white"/>
</g>
</g>
</g>
<defs>
<linearGradient id="paint0_linear_1_33" x1="26.2174" y1="-2.82225" x2="58.9487" y2="94.4714" gradientUnits="userSpaceOnUse">
<stop stop-color="#6EE8FC"/>
<stop offset="0.16" stop-color="#6AE2FB"/>
<stop offset="0.37" stop-color="#5ED1F7"/>
<stop offset="0.61" stop-color="#4BB5F1"/>
<stop offset="0.87" stop-color="#308EE8"/>
<stop offset="0.96" stop-color="#267FE5"/>
</linearGradient>
<clipPath id="clip0_1_33">
<rect width="83" height="83" fill="white"/>
</clipPath>
<clipPath id="clip1_1_33">
<rect width="43" height="45" fill="white" transform="translate(20 19)"/>
</clipPath>
</defs>
</svg>
