<svg width="83" height="83" viewBox="0 0 83 83" fill="none" xmlns="http://www.w3.org/2000/svg">
<g clip-path="url(#clip0_1_34)">
<path d="M41.0031 82.0719C63.6486 82.0719 82.0063 63.6995 82.0063 41.0359C82.0063 18.3724 63.6486 0 41.0031 0C18.3577 0 0 18.3724 0 41.0359C0 63.6995 18.3577 82.0719 41.0031 82.0719Z" fill="url(#paint0_linear_1_34)" fill-opacity="0.7"/>
<mask id="mask0_1_34" style="mask-type:luminance" maskUnits="userSpaceOnUse" x="20" y="18" width="43" height="46">
<path d="M62.6799 18H20V64H62.6799V18Z" fill="white"/>
</mask>
<g mask="url(#mask0_1_34)">
<path fill-rule="evenodd" clip-rule="evenodd" d="M42.6694 18.9134C45.603 20.7041 48.7664 22.1454 52.0854 23.2035C54.548 24.0007 57.1582 24.3279 59.7598 24.1655L62.4587 23.9372L62.5915 26.4603C63.0862 35.7404 61.4773 43.8039 58.1027 50.1641C54.5912 56.7826 49.1934 61.563 42.2631 63.9888H40.4611C33.6877 61.6865 28.3301 57.0371 24.7744 50.3363C21.4561 44.0472 19.7547 35.9238 20.0282 26.2357L20.1006 23.7463L22.7593 23.8735C25.6535 24.0483 28.5588 23.7712 31.3548 23.0537C34.3814 22.2309 37.2076 20.8693 39.6768 19.0444L41.1208 18L42.6694 18.9134ZM41.2897 25.2249C46.7318 28.4368 51.647 29.9567 55.8663 29.6048C56.6024 43.4557 51.1 54.0423 41.346 57.4601C31.922 54.2594 26.3511 44.0397 26.7654 29.384C31.7168 29.6273 36.5797 28.6353 41.2897 25.2249ZM38.3052 41.0636C38.6807 41.3618 39.0354 41.6819 39.3671 42.022C40.3698 40.5173 41.4812 39.0777 42.6935 37.7132C46.0078 33.9884 45.0183 34.2318 49.6157 34.2318L48.9601 34.8906C47.2341 36.6926 45.648 38.6066 44.2139 40.6182C42.6196 42.7638 41.174 45.002 39.886 47.319L39.4837 48.034L39.1177 47.3078C38.4676 45.9871 37.6449 44.7461 36.6682 43.613C35.787 42.5768 34.7348 41.6771 33.551 40.9476C34.1503 39.117 37.0061 40.0566 38.2851 41.0636H38.3052ZM41.2736 20.9611C48.2643 25.0789 54.5752 27.033 59.9971 26.5763C60.9424 44.3916 53.8713 57.3366 41.346 61.7277C29.2511 57.6136 22.0956 45.1216 22.6265 26.3031C28.9857 26.61 35.2282 25.3335 41.2736 20.9611Z" fill="white"/>
</g>
</g>
<defs>
<linearGradient id="paint0_linear_1_34" x1="26.2174" y1="-2.82225" x2="58.9487" y2="94.4714" gradientUnits="userSpaceOnUse">
<stop stop-color="#6EE8FC"/>
<stop offset="0.16" stop-color="#6AE2FB"/>
<stop offset="0.37" stop-color="#5ED1F7"/>
<stop offset="0.61" stop-color="#4BB5F1"/>
<stop offset="0.87" stop-color="#308EE8"/>
<stop offset="0.96" stop-color="#267FE5"/>
</linearGradient>
<clipPath id="clip0_1_34">
<rect width="83" height="83" fill="white"/>
</clipPath>
</defs>
</svg>
