<svg width="65" height="65" viewBox="0 0 65 65" fill="none" xmlns="http://www.w3.org/2000/svg">
<g id="Group 51">
<circle id="Ellipse 7" cx="32.5" cy="32.5" r="32.5" fill="white"/>
<path id="Vector" d="M51 31.4085C51 40.4707 42.4928 47.817 32 47.817C30.1182 47.8195 28.2441 47.5784 26.4259 47.0997C25.0389 47.7936 21.854 49.125 16.496 49.9923C16.021 50.0673 15.66 49.5798 15.8476 49.1438C16.6884 47.1841 17.4484 44.5728 17.6764 42.1912C14.767 39.308 13 35.5341 13 31.4085C13 22.3463 21.5072 15 32 15C42.4928 15 51 22.3463 51 31.4085ZM24.875 31.4085C24.875 30.7868 24.6248 30.1906 24.1794 29.751C23.734 29.3114 23.1299 29.0644 22.5 29.0644C21.8701 29.0644 21.266 29.3114 20.8206 29.751C20.3752 30.1906 20.125 30.7868 20.125 31.4085C20.125 32.0302 20.3752 32.6264 20.8206 33.066C21.266 33.5056 21.8701 33.7526 22.5 33.7526C23.1299 33.7526 23.734 33.5056 24.1794 33.066C24.6248 32.6264 24.875 32.0302 24.875 31.4085ZM34.375 31.4085C34.375 30.7868 34.1248 30.1906 33.6794 29.751C33.234 29.3114 32.6299 29.0644 32 29.0644C31.3701 29.0644 30.766 29.3114 30.3206 29.751C29.8752 30.1906 29.625 30.7868 29.625 31.4085C29.625 32.0302 29.8752 32.6264 30.3206 33.066C30.766 33.5056 31.3701 33.7526 32 33.7526C32.6299 33.7526 33.234 33.5056 33.6794 33.066C34.1248 32.6264 34.375 32.0302 34.375 31.4085ZM41.5 33.7526C42.1299 33.7526 42.734 33.5056 43.1794 33.066C43.6248 32.6264 43.875 32.0302 43.875 31.4085C43.875 30.7868 43.6248 30.1906 43.1794 29.751C42.734 29.3114 42.1299 29.0644 41.5 29.0644C40.8701 29.0644 40.266 29.3114 39.8206 29.751C39.3752 30.1906 39.125 30.7868 39.125 31.4085C39.125 32.0302 39.3752 32.6264 39.8206 33.066C40.266 33.5056 40.8701 33.7526 41.5 33.7526Z" fill="#D4088C"/>
</g>
</svg>
