<svg width="115" height="115" viewBox="0 0 115 115" fill="none" xmlns="http://www.w3.org/2000/svg">
<path d="M57.5 115C89.2564 115 115 89.2564 115 57.5C115 25.7436 89.2564 0 57.5 0C25.7436 0 0 25.7436 0 57.5C0 89.2564 25.7436 115 57.5 115Z" fill="url(#paint0_linear_1_7)" fill-opacity="0.8"/>
<path d="M32.3754 52.5081C33.0552 51.8285 33.977 51.4468 34.9383 51.4468C35.8995 51.4468 36.8213 51.8285 37.5011 52.5081L50.3191 65.3261L75.9479 39.6937C76.2844 39.357 76.684 39.0897 77.1239 38.9074C77.5637 38.725 78.0351 38.6311 78.5113 38.6309C78.9874 38.6307 79.4589 38.7243 79.8989 38.9064C80.3388 39.0884 80.7386 39.3554 81.0754 39.6919C81.4122 40.0285 81.6794 40.4281 81.8618 40.8679C82.0442 41.3078 82.1381 41.7792 82.1383 42.2553C82.1385 42.7315 82.0448 43.203 81.8628 43.6429C81.6807 44.0829 81.4138 44.4827 81.0773 44.8195L50.3191 75.5776L32.3754 57.6339C31.6958 56.9541 31.314 56.0322 31.314 55.071C31.314 54.1098 31.6958 53.1879 32.3754 52.5081V52.5081Z" fill="white"/>
<defs>
<linearGradient id="paint0_linear_1_7" x1="98.1573" y1="16.8232" x2="16.8228" y2="98.1577" gradientUnits="userSpaceOnUse">
<stop stop-color="#D4088C"/>
<stop offset="0.04" stop-color="#CC088C"/>
<stop offset="0.46" stop-color="#85078A"/>
<stop offset="0.76" stop-color="#590689"/>
<stop offset="0.91" stop-color="#480689"/>
</linearGradient>
</defs>
</svg>
