<svg width="115" height="115" viewBox="0 0 115 115" fill="none" xmlns="http://www.w3.org/2000/svg">
<path d="M57.5 115C89.2564 115 115 89.2564 115 57.5C115 25.7436 89.2564 0 57.5 0C25.7436 0 0 25.7436 0 57.5C0 89.2564 25.7436 115 57.5 115Z" fill="url(#paint0_linear_1_7)" fill-opacity="0.8"/>
<path d="M57.375 39.875C55.0882 39.875 52.8527 40.5531 50.9512 41.8236C49.0498 43.0941 47.5678 44.9 46.6927 47.0127C45.8175 49.1255 45.5885 51.4503 46.0347 53.6932C46.4808 55.9361 47.582 57.9964 49.1991 59.6134C50.8161 61.2305 52.8764 62.3317 55.1193 62.7778C57.3622 63.224 59.687 62.995 61.7998 62.1199C63.9126 61.2447 65.7184 59.7627 66.9889 57.8613C68.2594 55.9598 68.9375 53.7243 68.9375 51.4375C68.9375 48.3709 67.7193 45.43 65.5509 43.2616C63.3825 41.0932 60.4416 39.875 57.375 39.875ZM57.375 58.375C56.0029 58.375 54.6616 57.9681 53.5207 57.2058C52.3799 56.4435 51.4907 55.36 50.9656 54.0924C50.4405 52.8247 50.3031 51.4298 50.5708 50.0841C50.8385 48.7383 51.4992 47.5022 52.4695 46.5319C53.4397 45.5617 54.6758 44.901 56.0216 44.6333C57.3673 44.3656 58.7622 44.503 60.0299 45.0281C61.2975 45.5532 62.381 46.4424 63.1433 47.5832C63.9056 48.7241 64.3125 50.0654 64.3125 51.4375C64.3107 53.2769 63.5792 55.0404 62.2785 56.341C60.9779 57.6417 59.2144 58.3732 57.375 58.375Z" fill="white"/>
<path d="M57.375 26C50.9718 26 44.7125 27.8988 39.3884 31.4562C34.0644 35.0136 29.9148 40.0699 27.4644 45.9856C25.014 51.9014 24.3729 58.4109 25.6221 64.691C26.8713 70.9712 29.9547 76.7399 34.4824 81.2676C39.0102 85.7953 44.7788 88.8787 51.059 90.1279C57.3391 91.3771 63.8486 90.736 69.7644 88.2856C75.6802 85.8352 80.7364 81.6856 84.2938 76.3616C87.8513 71.0375 89.75 64.7782 89.75 58.375C89.7402 49.7916 86.3261 41.5626 80.2568 35.4932C74.1874 29.4239 65.9584 26.0098 57.375 26V26ZM43.5 82.3718V79.1875C43.5019 77.3481 44.2334 75.5846 45.534 74.284C46.8346 72.9833 48.5981 72.2518 50.4375 72.25H64.3125C66.1519 72.2518 67.9154 72.9833 69.216 74.284C70.5167 75.5846 71.2482 77.3481 71.25 79.1875V82.3718C67.0393 84.8305 62.251 86.1261 57.375 86.1261C52.4991 86.1261 47.7107 84.8305 43.5 82.3718V82.3718ZM75.8565 79.0164C75.8104 75.9831 74.5746 73.0894 72.4153 70.9587C70.256 68.8279 67.3461 67.6307 64.3125 67.625H50.4375C47.4039 67.6307 44.494 68.8279 42.3347 70.9587C40.1754 73.0894 38.9396 75.9831 38.8935 79.0164C34.6999 75.2719 31.7426 70.3419 30.4132 64.8793C29.0837 59.4167 29.4449 53.6791 31.4487 48.4263C33.4526 43.1735 37.0047 38.6532 41.6347 35.4641C46.2647 32.2749 51.7541 30.5672 57.3762 30.5672C62.9982 30.5672 68.4877 32.2749 73.1177 35.4641C77.7476 38.6532 81.2997 43.1735 83.3036 48.4263C85.3075 53.6791 85.6686 59.4167 84.3391 64.8793C83.0097 70.3419 80.0524 75.2719 75.8588 79.0164H75.8565Z" fill="white"/>
<defs>
<linearGradient id="paint0_linear_1_7" x1="98.1573" y1="16.8232" x2="16.8228" y2="98.1577" gradientUnits="userSpaceOnUse">
<stop stop-color="#D4088C"/>
<stop offset="0.04" stop-color="#CC088C"/>
<stop offset="0.46" stop-color="#85078A"/>
<stop offset="0.76" stop-color="#590689"/>
<stop offset="0.91" stop-color="#480689"/>
</linearGradient>
</defs>
</svg>
