<svg width="99" height="61" viewBox="0 0 99 61" fill="none" xmlns="http://www.w3.org/2000/svg">
<g id="anti-spam-protection-icon 1" opacity="0.9" clip-path="url(#clip0_1_828)">
<g id="Group">
<path id="Vector" fill-rule="evenodd" clip-rule="evenodd" d="M4.43876 0.407471H73.1122C74.3345 0.407471 75.4522 0.862462 76.2563 1.59632C77.0605 2.33017 77.5671 3.35024 77.5671 4.4657V8.61933C76.9559 8.28175 76.3528 7.93684 75.7578 7.59927C75.227 7.98087 74.6883 8.34046 74.1495 8.69271V5.70591L63.8324 13.727C61.3155 14.5782 58.7744 15.18 56.2253 15.5616L71.713 3.51902H5.58868L39.3786 28.6609L45.6911 23.7514C45.7554 25.0724 45.8438 26.3566 45.9645 27.6189L40.5044 31.8606C39.8932 32.3376 38.9765 32.3669 38.3251 31.8826L30.1229 25.7769L5.30723 48.4824H51.706C52.2689 49.5612 52.872 50.6033 53.5153 51.6013H4.4468C3.22451 51.6013 2.10676 51.1463 1.30262 50.4051C0.498486 49.6713 -8.01086e-05 48.6512 -8.01086e-05 47.5357V4.4657C-8.01086e-05 3.35024 0.498486 2.33017 1.30262 1.59632C2.10676 0.862462 3.21647 0.407471 4.43876 0.407471ZM98.6998 21.748C99.8578 43.0592 91.2294 55.6522 75.9427 60.8993C61.1787 55.9824 52.4539 43.9398 53.1052 21.4251C60.8651 21.7921 68.4803 20.2656 75.8623 15.0332C82.408 18.8199 90.7549 22.4085 98.6998 21.748ZM91.6234 26.8997C92.4115 41.4301 86.5332 50.0162 76.1116 53.5974C76.0473 53.5754 75.9829 53.5534 75.9106 53.5313V22.4158L76.0473 22.3278C80.5022 24.9036 86.1955 27.3473 91.6234 26.8997ZM96.0864 23.6047C97.1076 42.4648 89.4764 53.6121 75.9508 58.2647C62.8755 53.913 55.1558 43.25 55.7187 23.3185C62.6021 23.6487 69.3408 22.2984 75.8623 17.6604C81.6602 21.0142 89.0582 24.1918 96.0864 23.6047ZM3.40142 45.8259L27.4693 23.8102L3.40142 5.90406V45.8259Z" fill="white"/>
</g>
</g>
<defs>
<clipPath id="clip0_1_828">
<rect width="98.8125" height="60.4918" fill="white" transform="translate(0 0.407471)"/>
</clipPath>
</defs>
</svg>
