<svg width="115" height="115" viewBox="0 0 115 115" fill="none" xmlns="http://www.w3.org/2000/svg">
<path d="M57.5 115C89.2564 115 115 89.2564 115 57.5C115 25.7436 89.2564 0 57.5 0C25.7436 0 0 25.7436 0 57.5C0 89.2564 25.7436 115 57.5 115Z" fill="url(#paint0_linear_1_7)" fill-opacity="0.8"/>
<g clip-path="url(#clip0_1_7)">
<path fill-rule="evenodd" clip-rule="evenodd" d="M78.2079 73.7276H71.0781C70.4781 74.5804 69.8352 75.4333 69.1494 76.2861C68.4358 77.156 67.6643 78.0259 66.8478 78.8958C66.0313 79.7657 65.2791 80.4949 64.4241 81.3008C63.7297 81.9618 63.0075 82.6142 62.2575 83.2581L62.8554 83.1494C63.2668 83.0662 63.6847 82.9703 64.1026 82.8616C64.5205 82.7528 64.9384 82.6441 65.3498 82.5162C65.7613 82.3882 66.1599 82.2539 66.5714 82.1068C66.9828 81.9597 67.375 81.7934 67.7672 81.6207C68.1593 81.448 68.5772 81.2689 68.9565 81.0834C69.3359 80.8979 69.728 80.6996 70.1073 80.4949C70.4867 80.2902 70.8595 80.0855 71.2196 79.8553C71.5796 79.625 71.946 79.4139 72.2868 79.2156C72.6275 79.0173 72.9683 78.7167 73.2897 78.4673C73.6112 78.2178 73.9326 77.9619 74.2734 77.6997C74.6141 77.4374 74.9163 77.1688 75.2184 76.8874C75.5206 76.6059 75.8613 76.3181 76.1313 76.0239C76.4014 75.7296 76.5878 75.5569 76.7742 75.3266C76.9607 75.0964 77.2114 74.8533 77.4171 74.6103C77.6229 74.3672 77.7515 74.2201 77.9122 74.0218L78.1501 73.7276H78.2079ZM28.2864 64.2993L24.8662 50.7007H29.778L31.3467 59.0159H31.4495L33.1918 50.7007H37.9621L39.7816 58.92H39.8587L41.3503 50.7007H46.2878L42.8739 64.2993H37.57L35.6413 57.0011H35.4998L33.5711 64.2993H28.2864ZM50.203 64.2993L46.7892 50.7007H51.701L53.2633 59.0159H53.3597L55.102 50.7007H59.8723L61.7174 58.92H61.8267L63.3183 50.7007H68.2108L64.797 64.2993H59.493L57.5643 57.0011H57.4228L55.4941 64.2993H50.203ZM72.1261 64.2993L68.7122 50.7007H73.624L75.1863 59.0159H75.2891L77.0378 50.7007H81.8082L83.6212 58.92H83.724L85.222 50.7007H90.1338L86.7135 64.2993H81.4096L79.4809 57.0011H79.3394L77.4107 64.2993H72.1261ZM24.0947 42.1935H32.1439C32.3882 41.7969 32.6389 41.394 32.9025 41.0038C33.1661 40.6136 33.4297 40.2362 33.7126 39.8588C33.9954 39.4815 34.2783 39.1169 34.574 38.7523C34.8698 38.3877 35.1848 38.0295 35.5063 37.6841C35.8277 37.3387 36.1492 36.9741 36.5028 36.6415C36.8306 36.3025 37.1457 36.0018 37.5121 35.6692C37.8786 35.3366 38.2129 35.0296 38.5793 34.7482L39.698 33.8846C40.0837 33.6032 40.4695 33.3346 40.8488 33.0851C41.2281 32.8356 41.646 32.5606 42.051 32.3175C42.456 32.0745 42.8739 31.8378 43.3368 31.6075C43.7997 31.3773 44.179 31.1662 44.6226 30.9679C45.0662 30.7696 45.5034 30.5585 45.9406 30.373C46.397 30.1748 46.8535 29.9957 47.3035 29.8358C47.7536 29.6758 48.2165 29.452 48.7051 29.2793C49.1937 29.1066 49.6437 29.0042 50.113 28.8827C50.5824 28.7612 51.0517 28.6588 51.5403 28.5565C52.0739 28.4861 52.5239 28.403 53.0061 28.3262C53.4883 28.2495 54.0026 28.1983 54.4719 28.1471C54.9412 28.0959 55.4748 28.064 55.9763 28.0384C56.4778 28.0128 56.9985 28 57.5 28C58.5029 28 59.5187 28.0512 60.5152 28.1471C61.0167 28.1983 61.5117 28.2559 61.9939 28.3262C62.4761 28.3966 62.9647 28.4861 63.4533 28.5821C63.9419 28.678 64.3984 28.7804 64.8677 28.9019C65.337 29.0234 65.7999 29.1449 66.2628 29.2857C66.7257 29.4264 67.1821 29.5863 67.6257 29.7462C68.0693 29.9061 68.5194 30.0852 68.963 30.2707L69.098 30.3347C69.5223 30.5138 69.9402 30.7057 70.3838 30.9103C70.8274 31.115 71.2453 31.3389 71.6696 31.55C72.0875 31.7802 72.5054 32.0169 72.9104 32.26C73.3219 32.5094 73.7269 32.7653 74.1255 33.0211C74.5241 33.277 74.8905 33.5456 75.2634 33.8207C75.6363 34.0957 76.0156 34.39 76.3821 34.6842C76.7485 34.9784 77.1086 35.2918 77.4622 35.6117C77.8157 35.9315 78.1693 36.2513 78.5037 36.5967C78.8315 36.9229 79.1466 37.2363 79.4744 37.6009C79.8023 37.9655 80.1173 38.2981 80.4002 38.6627C80.6831 39.0273 80.9853 39.3919 81.2681 39.7757C81.551 40.1595 81.821 40.5433 82.0846 40.9334C82.3482 41.33 82.6054 41.7266 82.8433 42.1168H90.9053C92.5212 42.1185 94.0704 42.7579 95.213 43.8947C96.3556 45.0315 96.9983 46.5728 97 48.1805V66.666C96.994 68.269 96.3516 69.8048 95.2127 70.9387V70.9387C94.0762 72.0727 92.5341 72.7121 90.9246 72.7169H82.8625C82.6182 73.1199 82.3675 73.5165 82.1039 73.9131C81.8403 74.3096 81.5767 74.6806 81.2939 75.058C81.011 75.4354 80.7281 75.8 80.4324 76.1582C80.1238 76.5292 79.7895 76.8874 79.5002 77.2328C79.1787 77.5846 78.8573 77.93 78.5229 78.2562C78.1972 78.5888 77.8629 78.9086 77.52 79.2156C77.1728 79.5291 76.8192 79.8553 76.4528 80.1367C76.0863 80.4182 75.7135 80.7188 75.3341 81.0002C74.9548 81.2817 74.5627 81.5503 74.1705 81.8126C73.7783 82.0748 73.3797 82.3307 72.9747 82.5737C72.5697 82.8168 72.1453 83.0534 71.6889 83.2837C71.2324 83.514 70.8402 83.7315 70.4031 83.9234C69.9659 84.1152 69.5223 84.3327 69.1173 84.5246C68.7122 84.7165 68.2108 84.8956 67.7479 85.0683C67.285 85.241 66.8221 85.3881 66.3528 85.5352C65.8835 85.6823 65.4141 85.8103 64.9512 85.9318C64.4884 86.0533 63.9998 86.1557 63.5111 86.258C63.0225 86.3604 62.5404 86.4435 62.0582 86.5139C61.576 86.5842 61.081 86.6418 60.5795 86.693C59.5766 86.7889 58.5672 86.8401 57.5514 86.8401C57.05 86.8401 56.5421 86.8401 56.0342 86.8017C55.5263 86.7633 55.0377 86.7441 54.5362 86.693C54.0347 86.6418 53.5397 86.5842 53.0575 86.5139C52.5754 86.4435 52.0932 86.354 51.5981 86.258C51.1031 86.1621 50.6016 86.2069 50.1452 86.1045C49.6887 86.0022 49.213 85.8551 48.7501 85.7143C48.2872 85.5736 47.8372 85.4201 47.3935 85.2602C46.9499 85.1003 46.4871 84.9148 46.0434 84.7229L45.9149 84.6653C45.4906 84.4862 45.0662 84.2943 44.6291 84.0833C44.1919 83.8722 43.7804 83.6675 43.3433 83.4436C42.9061 83.2198 42.5075 82.9831 42.1025 82.7336C41.6974 82.4842 41.2667 82.2219 40.8681 81.9597C40.4695 81.6974 40.0966 81.4352 39.7173 81.1601C39.338 80.8851 38.9715 80.5972 38.6051 80.2966C38.2386 79.996 37.8786 79.657 37.525 79.3628C37.1714 79.0685 36.8114 78.7231 36.4835 78.3841C36.1492 78.0579 35.8406 77.7445 35.5127 77.3799C35.1848 77.0153 34.8698 76.6827 34.5869 76.3181C34.304 75.9535 34.0019 75.5825 33.719 75.2051C33.4361 74.8277 33.1661 74.4376 32.9089 74.0474C32.6518 73.6572 32.401 73.2414 32.1439 72.8385H24.0947C22.4743 72.8334 20.9222 72.1885 19.7794 71.0455C18.6366 69.9025 17.9966 68.3549 18 66.7427V48.2573C18.0017 46.6496 18.6444 45.1082 19.787 43.9714C20.9296 42.8346 22.4788 42.1952 24.0947 42.1935ZM52.7682 83.2453C52.016 82.6057 51.296 81.9661 50.6016 81.2881C49.7444 80.4906 48.9387 79.6911 48.1843 78.8894C47.3678 78.0195 46.5963 77.1496 45.8827 76.2797C45.1691 75.4098 44.5391 74.5847 43.954 73.7212H36.8306L37.0621 74.0154L37.5635 74.6039C37.9814 75.0836 38.425 75.5569 38.8494 76.0111C39.1451 76.3053 39.4473 76.5931 39.7559 76.8682C40.0644 77.1432 40.3988 77.4247 40.7009 77.6805C41.0031 77.9364 41.3438 78.1986 41.6846 78.4481C42.0253 78.6975 42.366 78.9342 42.7132 79.1709C43.0604 79.4075 43.414 79.625 43.7869 79.8489C44.1597 80.0727 44.5133 80.2774 44.8798 80.4885C45.2463 80.6996 45.6513 80.8979 46.0434 81.077C46.4356 81.2561 46.8278 81.4416 47.2328 81.6143L47.3164 81.6654C47.7086 81.8253 48.0943 81.9789 48.4865 82.1196C48.8787 82.2603 49.2773 82.3946 49.6887 82.5225C50.0873 82.6505 50.4988 82.7656 50.9102 82.868C51.3217 82.9703 51.746 83.0662 52.1639 83.143L52.7168 83.2453H52.7682ZM36.7985 41.2724H44.359C44.9548 40.4196 45.5977 39.5774 46.2878 38.7459C46.9778 37.9144 47.7279 37.0444 48.5379 36.1362C49.2773 35.3302 50.068 34.5179 50.8974 33.6992C51.5789 33.0595 52.2925 32.3559 53.0254 31.6843L52.7168 31.7419L52.1896 31.8378C51.7782 31.921 51.3538 32.0169 50.9038 32.1257C50.4538 32.2344 50.068 32.3495 49.663 32.4711C49.258 32.5926 48.8465 32.7397 48.4351 32.8868C48.0236 33.0339 47.6314 33.1938 47.2393 33.3665C46.8471 33.5392 46.4292 33.7247 46.0434 33.9102C45.6577 34.0957 45.272 34.2876 44.8927 34.4923C44.5133 34.697 44.1405 34.9081 43.774 35.1319C43.4075 35.3558 43.0604 35.5733 42.7196 35.7716C42.3789 35.9699 42.0189 36.2449 41.6846 36.4944C41.3503 36.7438 41.0417 36.9933 40.7009 37.2555C40.3602 37.5178 40.058 37.7864 39.7559 38.0743C39.4537 38.3621 39.1129 38.6371 38.8429 38.9378C38.6179 39.1616 38.3929 39.3919 38.2 39.6222C38.0072 39.8525 37.7628 40.0955 37.5571 40.3322L37.0557 40.927L36.8114 41.2341L36.7985 41.2724ZM61.9939 31.7099C62.7332 32.3495 63.4469 33.0467 64.1219 33.7183C64.9512 34.5243 65.7292 35.3302 66.4685 36.1362C67.2078 36.9421 68.0179 37.876 68.7187 38.7459C69.4194 39.6158 70.0045 40.4281 70.6474 41.2724H78.1886L77.9508 40.9782C77.79 40.7799 77.6229 40.5816 77.4557 40.3897C77.2886 40.1979 77.0314 39.9164 76.8128 39.6797C76.5942 39.4431 76.3756 39.2192 76.1313 38.9825C75.887 38.7459 75.4884 38.3877 75.2184 38.1126C74.9484 37.8376 74.5755 37.5562 74.2734 37.3003C73.9712 37.0444 73.6304 36.7822 73.2897 36.5327C72.949 36.2833 72.6082 36.0466 72.2611 35.81C71.9139 35.5733 71.5603 35.3558 71.1938 35.1383C70.8274 34.9209 70.4609 34.7098 70.088 34.4987C69.7152 34.2876 69.3294 34.0957 68.9437 33.9166C68.5579 33.7375 68.1465 33.5648 67.7415 33.3857L67.6579 33.3346C67.2657 33.1747 66.8735 33.0275 66.4878 32.8804C66.102 32.7333 65.6906 32.6054 65.2856 32.4775C64.8805 32.3559 64.4755 32.2408 64.064 32.132C63.6526 32.0233 63.2283 31.9402 62.7782 31.857L62.2446 31.7547L61.9682 31.7099H61.9939ZM59.1458 33.6416V41.2724H66.4942C66.0378 40.6968 65.562 40.1211 65.0605 39.5454C64.4776 38.8674 63.8583 38.1894 63.2025 37.5114C62.5468 36.8334 61.8546 36.1426 61.126 35.439C60.4831 34.8441 59.8402 34.2428 59.1973 33.6416H59.1458ZM59.1458 73.7276V81.4991C59.8659 80.8979 60.5645 80.2902 61.2417 79.6762C62.0046 78.9768 62.7354 78.2796 63.434 77.5846C64.1219 76.8874 64.7777 76.1966 65.3949 75.4994C65.922 74.9109 66.4235 74.3224 66.8992 73.7276H59.1458ZM55.8027 81.4991V73.7276H48.075C48.5508 74.3224 49.0458 74.9173 49.573 75.5057C50.2159 76.1966 50.8588 76.8874 51.5017 77.5782C52.1446 78.269 52.9289 78.9726 53.7004 79.6762C54.3433 80.2838 55.0762 80.8915 55.8027 81.4991V81.4991ZM55.8027 41.2724V33.6416C55.1277 34.2428 54.4783 34.8377 53.874 35.4326C53.1411 36.1319 52.4468 36.8248 51.791 37.5114C51.1481 38.1894 50.5052 38.8674 49.933 39.5454C49.4316 40.1211 48.9558 40.6968 48.5058 41.2724H55.8027ZM24.0947 44.8928H90.9053C91.8011 44.8961 92.6593 45.2517 93.2927 45.8819C93.9262 46.5122 94.2836 47.366 94.2869 48.2573V66.7427C94.2836 67.634 93.9262 68.4878 93.2927 69.1181C92.6593 69.7483 91.8011 70.1039 90.9053 70.1072H24.0947C23.1989 70.1039 22.3407 69.7483 21.7073 69.1181C21.0738 68.4878 20.7164 67.634 20.713 66.7427V48.2573C20.7164 47.366 21.0738 46.5122 21.7073 45.8819C22.3407 45.2517 23.1989 44.8961 24.0947 44.8928V44.8928Z" fill="white"/>
</g>
<defs>
<linearGradient id="paint0_linear_1_7" x1="98.1573" y1="16.8232" x2="16.8228" y2="98.1577" gradientUnits="userSpaceOnUse">
<stop stop-color="#D4088C"/>
<stop offset="0.04" stop-color="#CC088C"/>
<stop offset="0.46" stop-color="#85078A"/>
<stop offset="0.76" stop-color="#590689"/>
<stop offset="0.91" stop-color="#480689"/>
</linearGradient>
<clipPath id="clip0_1_7">
<rect width="79" height="59" fill="white" transform="translate(18 28)"/>
</clipPath>
</defs>
</svg>
