<?xml version="1.0" standalone="no"?>
<!DOCTYPE svg PUBLIC "-//W3C//DTD SVG 20010904//EN"
 "http://www.w3.org/TR/2001/REC-SVG-20010904/DTD/svg10.dtd">
<svg version="1.0" xmlns="http://www.w3.org/2000/svg"
 width="512.000000pt" height="512.000000pt" viewBox="0 0 512.000000 512.000000"
 preserveAspectRatio="xMidYMid meet">
<metadata>
Created by potrace 1.14, written by Peter Selinger 2001-2017
</metadata>
<g transform="translate(0.000000,512.000000) scale(0.100000,-0.100000)"
fill="#000000" stroke="none">
<path d="M3947 4850 c-45 -14 -94 -57 -113 -99 -15 -35 -21 -39 -54 -39 -137
-2 -228 -148 -174 -277 17 -42 79 -105 101 -105 10 0 13 -6 9 -16 -21 -55 -19
-60 31 -84 26 -12 75 -35 109 -51 34 -16 63 -29 66 -29 3 0 16 25 28 55 l22
54 26 -19 c72 -52 181 -39 243 28 82 87 76 209 -15 294 -24 23 -33 37 -27 47
14 22 4 97 -19 140 -19 39 -65 80 -105 96 -32 12 -98 15 -128 5z"/>
<path d="M2385 4439 c-215 -23 -384 -69 -555 -151 -302 -145 -542 -375 -676
-648 -15 -30 -29 -59 -30 -65 -2 -5 -17 -48 -33 -95 -16 -47 -32 -103 -36
-125 -4 -22 -9 -53 -13 -70 -8 -43 -7 -251 1 -310 21 -141 78 -283 161 -399
89 -125 275 -294 423 -385 51 -31 52 -34 51 -77 0 -24 4 -50 10 -57 8 -9 5
-29 -9 -72 -39 -116 -67 -249 -84 -398 -4 -32 -13 -74 -21 -93 l-14 -34 -69 0
c-111 0 -145 -24 -106 -76 8 -10 15 -22 15 -25 0 -3 -26 -9 -57 -12 -32 -4
-75 -11 -95 -17 -49 -14 -50 -44 -4 -94 19 -20 32 -36 28 -37 -4 0 -47 -2 -97
-5 -49 -2 -112 -10 -140 -17 -42 -11 -50 -17 -53 -38 -4 -32 55 -92 128 -131
58 -31 57 -32 -50 -75 -185 -76 -388 -122 -564 -128 -89 -3 -112 -7 -127 -22
-40 -40 29 -99 144 -124 33 -7 66 -12 73 -12 7 0 15 -11 18 -23 13 -52 168
-108 330 -121 50 -4 138 -6 196 -6 284 3 644 3 725 -1 50 -2 168 -5 264 -6
129 -1 193 -6 245 -20 39 -9 104 -21 144 -24 71 -7 73 -8 119 -57 26 -28 61
-58 77 -66 41 -21 102 -20 126 2 17 15 23 16 50 5 41 -17 86 -15 117 5 16 11
38 15 64 12 67 -8 119 40 119 108 0 27 35 41 128 52 52 6 52 6 92 -40 75 -85
141 -109 208 -76 35 18 42 18 66 5 33 -17 71 -12 107 13 18 13 30 16 42 10 15
-9 46 -7 85 5 23 8 49 52 55 95 6 35 -14 167 -32 214 -14 35 -9 44 23 45 30 0
124 21 151 35 35 17 65 50 65 71 0 11 -9 30 -21 42 l-20 22 81 11 c141 21 273
71 366 139 45 33 78 90 63 108 -16 20 -111 36 -221 38 l-77 1 23 25 c36 39 56
74 48 86 -10 16 -64 32 -132 40 -62 7 -70 13 -45 34 23 19 19 59 -7 69 -34 12
-139 13 -192 1 -27 -6 -50 -9 -52 -7 -2 2 0 17 5 35 12 42 -4 54 -73 55 l-53
1 2 40 c3 50 -9 76 -35 76 -20 0 -19 1 3 37 34 54 57 121 61 177 3 48 4 49 77
98 182 122 279 305 281 531 1 76 -3 103 -47 287 -31 132 -41 193 -49 302 -3
47 -3 46 64 88 119 73 160 102 169 118 12 23 -3 59 -28 67 -21 6 -41 -3 -136
-65 -33 -21 -63 -39 -66 -39 -3 -1 -9 25 -13 57 -16 133 -88 310 -183 445
-205 292 -582 517 -1008 602 -66 13 -147 27 -180 31 -81 9 -316 11 -390 3z"/>
<path d="M4345 4126 c-89 -40 -142 -149 -116 -243 9 -33 8 -35 -20 -45 -16 -5
-29 -16 -29 -22 0 -17 70 -209 81 -220 5 -5 29 0 58 12 55 22 55 22 65 -24 4
-18 23 -50 42 -73 84 -98 236 -83 311 31 23 34 28 52 28 105 0 34 2 63 5 63
12 0 66 58 83 88 21 38 28 103 15 151 -30 108 -151 169 -253 127 -31 -13 -35
-13 -52 6 -45 51 -153 73 -218 44z"/>
</g>
</svg>
